<?xml version="1.0" encoding="UTF-8" standalone="no"?>
<!-- Created with Inkscape (http://www.inkscape.org/) -->

<svg
   width="32"
   height="32"
   viewBox="0 0 8.4666665 8.4666666"
   version="1.1"
   id="svg1"
   inkscape:version="1.3.2 (091e20ef0f, 2023-11-25)"
   sodipodi:docname="imgsp.svg"
   xmlns:inkscape="http://www.inkscape.org/namespaces/inkscape"
   xmlns:sodipodi="http://sodipodi.sourceforge.net/DTD/sodipodi-0.dtd"
   xmlns="http://www.w3.org/2000/svg"
   xmlns:svg="http://www.w3.org/2000/svg">
  <sodipodi:namedview
     id="namedview1"
     pagecolor="#505050"
     bordercolor="#eeeeee"
     borderopacity="1"
     inkscape:showpageshadow="0"
     inkscape:pageopacity="0"
     inkscape:pagecheckerboard="0"
     inkscape:deskcolor="#505050"
     inkscape:document-units="mm"
     inkscape:zoom="15.479461"
     inkscape:cx="10.43318"
     inkscape:cy="16.505742"
     inkscape:window-width="1920"
     inkscape:window-height="1011"
     inkscape:window-x="0"
     inkscape:window-y="32"
     inkscape:window-maximized="1"
     inkscape:current-layer="layer1" />
  <defs
     id="defs1" />
  <g
     inkscape:label="Layer 1"
     inkscape:groupmode="layer"
     id="layer1">
    <path
       style="fill:#000000;stroke-width:0.264583"
       d="M 2.8031768,3.5552486 4.9397446,3.726174 5.1790401,1.863087 6.8370166,3.4697858 4.9568369,5.6405386 7.1275897,7.042127 7.6916435,4.7688191 8.1189572,7.1275898 5.5721686,7.5719959 3.5210636,7.0934046 2.5980662,8.2386048 c 0,0 -1.79471671,-0.7178865 -1.5554212,-0.7862567 0.2392956,-0.06837 1.9485497,-0.6837018 1.9485497,-0.6837018 0,0 -1.2477555,-1.5383285 -1.3332182,-1.5896064 C 1.5725138,5.1277624 0.13674032,5.435428 0.25638813,5.2986877 0.37603591,5.1619476 1.0597376,2.8031769 1.0597376,2.8031769 c 0,0 0.8717196,-0.1025554 0.820442,-0.2051106 C 1.8289019,2.495511 0.47859116,1.6066989 0.47859116,1.5383287 c 0,-0.06837 1.88017954,-0.80334943 1.88017954,-0.80334943 0,0 0.153833,0.95718233 0.1709253,1.05973753 0.017092,0.1025553 1.2990333,-0.4614986 1.2990333,-0.4614986 L 3.4014158,0.51277623 6.3755179,0.97427489 3.9825622,1.8801795 Z"
       id="path1" />
  </g>
</svg>
